<svg width="32" height="32" viewBox="0 0 32 32" fill="none" xmlns="http://www.w3.org/2000/svg">
  <!-- Cat body -->
  <ellipse cx="16" cy="18" rx="10" ry="9" fill="#FF9E5E"/>
  
  <!-- Cat head -->
  <circle cx="16" cy="12" r="8" fill="#FF9E5E"/>
  
  <!-- Left ear -->
  <path d="M10 8 L8 2 L12 6 Z" fill="#FF9E5E"/>
  <path d="M10 8 L9 3 L11.5 6.5 Z" fill="#FFB380"/>
  
  <!-- Right ear -->
  <path d="M22 8 L24 2 L20 6 Z" fill="#FF9E5E"/>
  <path d="M22 8 L23 3 L20.5 6.5 Z" fill="#FFB380"/>
  
  <!-- Left eye -->
  <ellipse cx="13" cy="11" rx="1.5" ry="2" fill="#2C1810"/>
  <circle cx="13" cy="10.5" r="0.5" fill="white"/>
  
  <!-- Right eye -->
  <ellipse cx="19" cy="11" rx="1.5" ry="2" fill="#2C1810"/>
  <circle cx="19" cy="10.5" r="0.5" fill="white"/>
  
  <!-- Nose -->
  <path d="M16 13 L15 14 L17 14 Z" fill="#FF6B9D"/>
  
  <!-- Mouth -->
  <path d="M16 14 Q14 15 13 14" stroke="#2C1810" stroke-width="0.5" fill="none"/>
  <path d="M16 14 Q18 15 19 14" stroke="#2C1810" stroke-width="0.5" fill="none"/>
  
  <!-- Whiskers left -->
  <line x1="8" y1="12" x2="12" y2="12" stroke="#2C1810" stroke-width="0.5"/>
  <line x1="8" y1="13" x2="12" y2="13.5" stroke="#2C1810" stroke-width="0.5"/>
  
  <!-- Whiskers right -->
  <line x1="24" y1="12" x2="20" y2="12" stroke="#2C1810" stroke-width="0.5"/>
  <line x1="24" y1="13" x2="20" y2="13.5" stroke="#2C1810" stroke-width="0.5"/>
  
  <!-- Tail -->
  <path d="M24 20 Q28 18 28 14" stroke="#FF9E5E" stroke-width="3" fill="none" stroke-linecap="round"/>
  
  <!-- Paws -->
  <ellipse cx="13" cy="26" rx="2" ry="1.5" fill="#FFB380"/>
  <ellipse cx="19" cy="26" rx="2" ry="1.5" fill="#FFB380"/>
</svg>
